<?xml version="1.0" standalone="no"?>
<!DOCTYPE svg PUBLIC "-//W3C//DTD SVG 20010904//EN"
 "http://www.w3.org/TR/2001/REC-SVG-20010904/DTD/svg10.dtd">
<svg version="1.0" xmlns="http://www.w3.org/2000/svg"
 width="512.000000pt" height="512.000000pt" viewBox="0 0 512.000000 512.000000"
 preserveAspectRatio="xMidYMid meet">

<g transform="translate(0.000000,512.000000) scale(0.100000,-0.100000)"
fill="#000000" stroke="none">
<path d="M1689 4886 c-20 -7 -52 -22 -70 -34 -36 -22 -85 -70 -78 -75 2 -2 20
-13 41 -26 105 -63 218 -234 240 -363 15 -87 -7 -216 -65 -383 -40 -117 -41
-123 -41 -245 1 -140 22 -229 88 -374 71 -156 200 -346 234 -346 24 0 69 -49
125 -136 26 -38 58 -77 72 -84 39 -21 52 -50 30 -66 -9 -7 -24 -10 -33 -7 -29
10 -82 65 -129 133 l-45 65 6 -59 c4 -32 18 -87 32 -122 36 -90 31 -103 -43
-139 -70 -34 -103 -61 -103 -84 0 -9 -9 -29 -20 -46 -30 -46 -25 -60 13 -32
17 14 66 43 108 66 98 53 137 54 205 6 27 -19 50 -31 52 -26 1 4 -6 32 -18 60
-27 70 -26 99 4 107 46 11 96 -37 130 -126 10 -25 55 -128 101 -230 91 -202
298 -716 364 -903 22 -65 53 -164 67 -220 33 -129 61 -197 83 -197 24 0 41 20
41 50 0 30 15 56 24 42 3 -5 24 -63 47 -128 54 -156 70 -184 123 -230 27 -24
66 -77 101 -139 123 -213 255 -375 309 -375 20 0 26 5 26 21 0 25 -83 174
-156 279 -73 105 -157 262 -270 500 -115 244 -117 249 -209 510 -40 113 -79
220 -86 237 -12 29 -11 35 4 50 16 16 18 16 37 -2 10 -11 51 -112 89 -225 38
-113 93 -262 122 -330 54 -129 276 -576 320 -642 26 -40 81 -73 105 -64 20 7
5 36 -48 94 -130 142 -274 456 -458 1002 -88 262 -100 290 -146 351 -28 36
-79 115 -113 176 -77 135 -132 200 -225 262 -84 57 -131 103 -157 153 -21 41
-24 64 -9 73 20 13 46 -6 69 -50 18 -33 50 -64 129 -122 121 -90 177 -154 247
-285 28 -51 76 -128 109 -171 56 -75 206 -213 236 -217 30 -5 40 0 40 21 0 29
-17 57 -65 110 -67 72 -126 157 -215 309 -75 128 -81 143 -67 157 22 22 43 10
72 -39 14 -24 53 -90 87 -148 62 -107 184 -273 235 -322 34 -33 135 -84 184
-93 70 -13 72 32 5 124 -18 25 -41 71 -51 101 -9 30 -45 98 -80 150 -80 122
-75 111 -85 174 -7 41 -22 75 -62 133 -73 108 -87 154 -88 288 -1 240 -43 370
-253 785 -187 369 -222 426 -311 506 -59 52 -76 74 -132 184 -41 81 -85 150
-124 195 -34 39 -92 113 -130 165 -110 153 -195 222 -319 260 -73 23 -197 26
-252 6z m314 -188 c37 -27 52 -55 36 -74 -14 -17 -31 -18 -46 -3 -16 16 -124
17 -149 2 -17 -11 -24 -11 -38 0 -23 17 -11 45 30 72 58 38 115 39 167 3z
m273 -869 c27 -17 66 -47 87 -65 21 -19 80 -61 131 -94 102 -66 171 -140 278
-300 64 -94 73 -130 34 -130 -18 0 -32 13 -57 53 -51 80 -163 229 -195 258
-16 15 -63 48 -104 75 -41 26 -95 64 -120 84 -25 20 -66 51 -92 69 -44 29 -59
57 -41 74 12 13 29 7 79 -24z m275 -936 c81 -112 115 -138 212 -162 26 -6 76
-26 111 -45 43 -23 83 -35 129 -40 48 -6 70 -13 76 -24 15 -31 2 -42 -52 -42
-73 1 -136 17 -178 46 -20 14 -64 33 -98 44 -86 26 -141 61 -199 125 -68 77
-90 119 -73 139 8 9 17 16 22 16 5 0 27 -26 50 -57z m724 -610 c58 -87 114
-169 126 -183 23 -29 17 -60 -11 -60 -22 0 -70 61 -188 236 -93 138 -101 164
-50 164 13 0 51 -49 123 -157z m-544 -52 c52 -113 165 -400 214 -540 26 -74
66 -177 89 -230 23 -53 51 -120 61 -149 18 -48 18 -54 3 -68 -15 -15 -18 -15
-34 4 -9 12 -32 58 -51 104 -18 46 -39 95 -47 109 -9 14 -40 95 -69 180 -56
159 -145 386 -215 547 -36 80 -39 94 -26 107 24 23 43 7 75 -64z"/>
<path d="M1455 4676 c-35 -59 -45 -99 -45 -173 0 -105 51 -232 119 -297 37
-36 46 -30 31 21 -16 52 -9 133 11 146 12 8 30 1 75 -26 32 -20 74 -40 92 -43
l34 -7 -7 49 c-19 139 -85 250 -200 338 -61 47 -78 46 -110 -8z"/>
</g>
</svg>
